<?xml version="1.0" encoding="UTF-8" standalone="no"?>
<!-- Created with Inkscape (http://www.inkscape.org/) -->

<svg
   xmlns:dc="http://purl.org/dc/elements/1.1/"
   xmlns:cc="http://creativecommons.org/ns#"
   xmlns:rdf="http://www.w3.org/1999/02/22-rdf-syntax-ns#"
   xmlns:svg="http://www.w3.org/2000/svg"
   xmlns="http://www.w3.org/2000/svg"
   xmlns:xlink="http://www.w3.org/1999/xlink"
   xmlns:sodipodi="http://sodipodi.sourceforge.net/DTD/sodipodi-0.dtd"
   xmlns:inkscape="http://www.inkscape.org/namespaces/inkscape"
   width="188.03728mm"
   height="89.301308mm"
   viewBox="0 0 666.27376 316.42176"
   id="svg2"
   version="1.1"
   inkscape:version="0.92.1 r15371"
   sodipodi:docname="webapp.svg">
  <defs
     id="defs4">
    <marker
       inkscape:isstock="true"
       id="marker67822"
       refX="5"
       refY="3"
       orient="auto-start-reverse"
       inkscape:stockid="ExperimentalArrow">
      <path
         style="fill:context-stroke;stroke:#000000;stroke-opacity:1"
         d="M 10,3 0,6 V 0 Z"
         id="path67820"
         inkscape:connector-curvature="0" />
    </marker>
    <marker
       inkscape:stockid="ExperimentalArrow"
       orient="auto-start-reverse"
       refY="3"
       refX="5"
       id="marker63168"
       inkscape:isstock="true"
       inkscape:collect="always">
      <path
         id="path63166"
         d="M 10,3 0,6 V 0 Z"
         style="fill:context-stroke;stroke:#000000;stroke-opacity:1"
         inkscape:connector-curvature="0" />
    </marker>
    <marker
       inkscape:isstock="true"
       id="marker41252"
       refX="5"
       refY="3"
       orient="auto-start-reverse"
       inkscape:stockid="ExperimentalArrow">
      <path
         style="fill:context-stroke;stroke:#000000;stroke-opacity:1"
         d="M 10,3 0,6 V 0 Z"
         id="path41250"
         inkscape:connector-curvature="0" />
    </marker>
    <marker
       inkscape:isstock="true"
       id="marker35098"
       refX="5"
       refY="3"
       orient="auto-start-reverse"
       inkscape:stockid="ExperimentalArrow">
      <path
         style="fill:context-stroke;stroke:#000000;stroke-opacity:1"
         d="M 10,3 0,6 V 0 Z"
         id="path35096"
         inkscape:connector-curvature="0" />
    </marker>
    <marker
       inkscape:isstock="true"
       id="marker19294"
       refX="5"
       refY="3"
       orient="auto-start-reverse"
       inkscape:stockid="ExperimentalArrow">
      <path
         style="fill:context-stroke;stroke:#000000;stroke-opacity:1"
         d="M 10,3 0,6 V 0 Z"
         id="path19292"
         inkscape:connector-curvature="0" />
    </marker>
    <marker
       inkscape:stockid="ExperimentalArrow"
       orient="auto-start-reverse"
       refY="3"
       refX="5"
       id="marker9799"
       inkscape:isstock="true">
      <path
         id="path9797"
         d="M 10,3 0,6 V 0 Z"
         style="fill:context-stroke;stroke:#c12800;stroke-opacity:1"
         inkscape:connector-curvature="0" />
    </marker>
    <marker
       inkscape:stockid="ExperimentalArrow"
       orient="auto-start-reverse"
       refY="3"
       refX="5"
       id="marker7139"
       inkscape:isstock="true"
       inkscape:collect="always">
      <path
         id="path7137"
         d="M 10,3 0,6 V 0 Z"
         style="fill:context-stroke;stroke:#000000;stroke-opacity:1"
         inkscape:connector-curvature="0" />
    </marker>
    <marker
       inkscape:stockid="ExperimentalArrow"
       orient="auto-start-reverse"
       refY="3"
       refX="5"
       id="ExperimentalArrow"
       inkscape:isstock="true"
       inkscape:collect="always">
      <path
         id="path4994"
         d="M 10,3 0,6 V 0 Z"
         style="fill:context-stroke;stroke:#000000;stroke-opacity:1"
         inkscape:connector-curvature="0" />
    </marker>
    <marker
       inkscape:stockid="CurvyCross"
       orient="auto"
       refY="0"
       refX="0"
       id="CurvyCross"
       style="overflow:visible"
       inkscape:isstock="true">
      <g
         id="g4935"
         transform="scale(0.6)"
         style="fill:#000000;fill-opacity:1;stroke:#000000;stroke-opacity:1">
        <path
           id="path4931"
           d="m 4.625493,-5.0456926 c -2.76,0 -5.00000002,2.24 -5.00000002,5.00000002 0,2.75999998 2.24000002,4.99999998 5.00000002,4.99999998"
           style="fill:#000000;fill-opacity:1;fill-rule:evenodd;stroke:#000000;stroke-width:1.00000003pt;stroke-opacity:1"
           inkscape:connector-curvature="0" />
        <path
           id="path4933"
           d="m -5.4129913,-5.0456926 c 2.76,0 4.99999999,2.24 4.99999999,5.00000002 0,2.75999998 -2.23999999,4.99999998 -4.99999999,4.99999998"
           style="fill:#000000;fill-opacity:1;fill-rule:evenodd;stroke:#000000;stroke-width:1.00000003pt;stroke-opacity:1"
           inkscape:connector-curvature="0" />
      </g>
    </marker>
    <marker
       inkscape:stockid="TriangleOutL"
       orient="auto"
       refY="0"
       refX="0"
       id="marker5355"
       style="overflow:visible"
       inkscape:isstock="true">
      <path
         id="path5353"
         d="M 5.77,0 -2.88,5 V -5 Z"
         style="fill:#000000;fill-opacity:1;fill-rule:evenodd;stroke:#000000;stroke-width:1.00000003pt;stroke-opacity:1"
         transform="scale(0.8)"
         inkscape:connector-curvature="0" />
    </marker>
    <marker
       inkscape:stockid="Arrow2Mend"
       orient="auto"
       refY="0"
       refX="0"
       id="marker5173"
       style="overflow:visible"
       inkscape:isstock="true">
      <path
         id="path4768"
         style="fill:#000000;fill-opacity:1;fill-rule:evenodd;stroke:#000000;stroke-width:0.625;stroke-linejoin:round;stroke-opacity:1"
         d="M 8.7185878,4.0337352 -2.2072895,0.01601326 8.7185884,-4.0017078 c -1.7454984,2.3720609 -1.7354408,5.6174519 -6e-7,8.035443 z"
         transform="scale(-0.6)"
         inkscape:connector-curvature="0" />
    </marker>
    <marker
       inkscape:stockid="TriangleOutL"
       orient="auto"
       refY="0"
       refX="0"
       id="marker5004"
       style="overflow:visible"
       inkscape:isstock="true">
      <path
         id="path4883"
         d="M 5.77,0 -2.88,5 V -5 Z"
         style="fill:#000000;fill-opacity:1;fill-rule:evenodd;stroke:#000000;stroke-width:1.00000003pt;stroke-opacity:1"
         transform="scale(0.8)"
         inkscape:connector-curvature="0" />
    </marker>
    <marker
       inkscape:isstock="true"
       style="overflow:visible"
       id="marker24972"
       refX="0"
       refY="0"
       orient="auto"
       inkscape:stockid="TriangleOutL">
      <path
         transform="scale(0.8)"
         style="fill:#000000;fill-opacity:1;fill-rule:evenodd;stroke:#000000;stroke-width:1.00000003pt;stroke-opacity:1"
         d="M 5.77,0 -2.88,5 V -5 Z"
         id="path24974"
         inkscape:connector-curvature="0" />
    </marker>
    <marker
       inkscape:isstock="true"
       style="overflow:visible"
       id="marker24954"
       refX="0"
       refY="0"
       orient="auto"
       inkscape:stockid="TriangleOutL">
      <path
         transform="scale(0.8)"
         style="fill:#000000;fill-opacity:1;fill-rule:evenodd;stroke:#000000;stroke-width:1.00000003pt;stroke-opacity:1"
         d="M 5.77,0 -2.88,5 V -5 Z"
         id="path24956"
         inkscape:connector-curvature="0" />
    </marker>
    <marker
       inkscape:stockid="TriangleOutL"
       orient="auto"
       refY="0"
       refX="0"
       id="marker48161"
       style="overflow:visible"
       inkscape:isstock="true">
      <path
         id="path48163"
         d="M 5.77,0 -2.88,5 V -5 Z"
         style="fill:#000000;fill-opacity:1;fill-rule:evenodd;stroke:#000000;stroke-width:1.00000003pt;stroke-opacity:1"
         transform="scale(0.8)"
         inkscape:connector-curvature="0" />
    </marker>
    <marker
       inkscape:isstock="true"
       style="overflow:visible"
       id="marker46063"
       refX="0"
       refY="0"
       orient="auto"
       inkscape:stockid="TriangleOutL">
      <path
         transform="scale(0.8)"
         style="fill:#000000;fill-opacity:1;fill-rule:evenodd;stroke:#000000;stroke-width:1.00000003pt;stroke-opacity:1"
         d="M 5.77,0 -2.88,5 V -5 Z"
         id="path46065"
         inkscape:connector-curvature="0" />
    </marker>
    <marker
       inkscape:isstock="true"
       style="overflow:visible"
       id="marker45939"
       refX="0"
       refY="0"
       orient="auto"
       inkscape:stockid="TriangleOutL">
      <path
         transform="scale(0.8)"
         style="fill:#000000;fill-opacity:1;fill-rule:evenodd;stroke:#000000;stroke-width:1.00000003pt;stroke-opacity:1"
         d="M 5.77,0 -2.88,5 V -5 Z"
         id="path45941"
         inkscape:connector-curvature="0" />
    </marker>
    <marker
       inkscape:isstock="true"
       style="overflow:visible"
       id="marker45821"
       refX="0"
       refY="0"
       orient="auto"
       inkscape:stockid="TriangleOutL">
      <path
         transform="scale(0.8)"
         style="fill:#000000;fill-opacity:1;fill-rule:evenodd;stroke:#000000;stroke-width:1.00000003pt;stroke-opacity:1"
         d="M 5.77,0 -2.88,5 V -5 Z"
         id="path45823"
         inkscape:connector-curvature="0" />
    </marker>
    <marker
       inkscape:stockid="Arrow2Lend"
       orient="auto"
       refY="0"
       refX="0"
       id="marker27405"
       style="overflow:visible"
       inkscape:isstock="true">
      <path
         id="path27407"
         style="fill:#000000;fill-opacity:1;fill-rule:evenodd;stroke:#000000;stroke-width:0.625;stroke-linejoin:round;stroke-opacity:1"
         d="M 8.7185878,4.0337352 -2.2072895,0.01601326 8.7185884,-4.0017078 c -1.7454984,2.3720609 -1.7354408,5.6174519 -6e-7,8.035443 z"
         transform="matrix(-1.1,0,0,-1.1,-1.1,0)"
         inkscape:connector-curvature="0" />
    </marker>
    <marker
       inkscape:stockid="Arrow2Lend"
       orient="auto"
       refY="0"
       refX="0"
       id="marker27399"
       style="overflow:visible"
       inkscape:isstock="true">
      <path
         id="path27401"
         style="fill:#000000;fill-opacity:1;fill-rule:evenodd;stroke:#000000;stroke-width:0.625;stroke-linejoin:round;stroke-opacity:1"
         d="M 8.7185878,4.0337352 -2.2072895,0.01601326 8.7185884,-4.0017078 c -1.7454984,2.3720609 -1.7354408,5.6174519 -6e-7,8.035443 z"
         transform="matrix(-1.1,0,0,-1.1,-1.1,0)"
         inkscape:connector-curvature="0" />
    </marker>
    <marker
       inkscape:stockid="Arrow2Lend"
       orient="auto"
       refY="0"
       refX="0"
       id="Arrow2Lend"
       style="overflow:visible"
       inkscape:isstock="true">
      <path
         id="path27119"
         style="fill:#000000;fill-opacity:1;fill-rule:evenodd;stroke:#000000;stroke-width:0.625;stroke-linejoin:round;stroke-opacity:1"
         d="M 8.7185878,4.0337352 -2.2072895,0.01601326 8.7185884,-4.0017078 c -1.7454984,2.3720609 -1.7354408,5.6174519 -6e-7,8.035443 z"
         transform="matrix(-1.1,0,0,-1.1,-1.1,0)"
         inkscape:connector-curvature="0" />
    </marker>
    <marker
       inkscape:stockid="Arrow2Lend"
       orient="auto"
       refY="0"
       refX="0"
       id="marker27389"
       style="overflow:visible"
       inkscape:isstock="true">
      <path
         id="path27391"
         style="fill:#000000;fill-opacity:1;fill-rule:evenodd;stroke:#000000;stroke-width:0.625;stroke-linejoin:round;stroke-opacity:1"
         d="M 8.7185878,4.0337352 -2.2072895,0.01601326 8.7185884,-4.0017078 c -1.7454984,2.3720609 -1.7354408,5.6174519 -6e-7,8.035443 z"
         transform="matrix(-1.1,0,0,-1.1,-1.1,0)"
         inkscape:connector-curvature="0" />
    </marker>
    <marker
       inkscape:stockid="Arrow2Lend"
       orient="auto"
       refY="0"
       refX="0"
       id="marker27383"
       style="overflow:visible"
       inkscape:isstock="true">
      <path
         id="path27385"
         style="fill:#000000;fill-opacity:1;fill-rule:evenodd;stroke:#000000;stroke-width:0.625;stroke-linejoin:round;stroke-opacity:1"
         d="M 8.7185878,4.0337352 -2.2072895,0.01601326 8.7185884,-4.0017078 c -1.7454984,2.3720609 -1.7354408,5.6174519 -6e-7,8.035443 z"
         transform="matrix(-1.1,0,0,-1.1,-1.1,0)"
         inkscape:connector-curvature="0" />
    </marker>
    <marker
       inkscape:stockid="Arrow2Lend"
       orient="auto"
       refY="0"
       refX="0"
       id="marker27379"
       style="overflow:visible"
       inkscape:isstock="true">
      <path
         id="path27381"
         style="fill:#000000;fill-opacity:1;fill-rule:evenodd;stroke:#000000;stroke-width:0.625;stroke-linejoin:round;stroke-opacity:1"
         d="M 8.7185878,4.0337352 -2.2072895,0.01601326 8.7185884,-4.0017078 c -1.7454984,2.3720609 -1.7354408,5.6174519 -6e-7,8.035443 z"
         transform="matrix(-1.1,0,0,-1.1,-1.1,0)"
         inkscape:connector-curvature="0" />
    </marker>
    <marker
       inkscape:isstock="true"
       style="overflow:visible"
       id="marker27373"
       refX="0"
       refY="0"
       orient="auto"
       inkscape:stockid="Arrow2Lend">
      <path
         transform="matrix(-1.1,0,0,-1.1,-1.1,0)"
         d="M 8.7185878,4.0337352 -2.2072895,0.01601326 8.7185884,-4.0017078 c -1.7454984,2.3720609 -1.7354408,5.6174519 -6e-7,8.035443 z"
         style="fill:#000000;fill-opacity:1;fill-rule:evenodd;stroke:#000000;stroke-width:0.625;stroke-linejoin:round;stroke-opacity:1"
         id="path27375"
         inkscape:connector-curvature="0" />
    </marker>
    <marker
       inkscape:stockid="TriangleOutL"
       orient="auto"
       refY="0"
       refX="0"
       id="marker27356"
       style="overflow:visible"
       inkscape:isstock="true">
      <path
         id="path27240"
         d="M 5.77,0 -2.88,5 V -5 Z"
         style="fill-rule:evenodd;stroke:#000000;stroke-width:1.00000003pt"
         transform="scale(0.8)"
         inkscape:connector-curvature="0" />
    </marker>
    <marker
       inkscape:stockid="Arrow2Mend"
       orient="auto"
       refY="0"
       refX="0"
       id="Arrow2Mend"
       style="overflow:visible"
       inkscape:isstock="true">
      <path
         id="path27125"
         style="fill:#000000;fill-opacity:1;fill-rule:evenodd;stroke:#000000;stroke-width:0.625;stroke-linejoin:round;stroke-opacity:1"
         d="M 8.7185878,4.0337352 -2.2072895,0.01601326 8.7185884,-4.0017078 c -1.7454984,2.3720609 -1.7354408,5.6174519 -6e-7,8.035443 z"
         transform="scale(-0.6)"
         inkscape:connector-curvature="0" />
    </marker>
    <marker
       inkscape:isstock="true"
       style="overflow:visible"
       id="marker24695"
       refX="0"
       refY="0"
       orient="auto"
       inkscape:stockid="TriangleOutM">
      <path
         transform="scale(0.4)"
         style="fill:#999999;fill-opacity:1;fill-rule:evenodd;stroke:#999999;stroke-width:1.00000003pt;stroke-opacity:1"
         d="M 5.77,0 -2.88,5 V -5 Z"
         id="path24697"
         inkscape:connector-curvature="0" />
    </marker>
    <marker
       inkscape:stockid="TriangleInL"
       orient="auto"
       refY="0"
       refX="0"
       id="TriangleInL"
       style="overflow:visible"
       inkscape:isstock="true">
      <path
         id="path24464"
         d="M 5.77,0 -2.88,5 V -5 Z"
         style="fill:#000000;fill-opacity:1;fill-rule:evenodd;stroke:#000000;stroke-width:1.00000003pt;stroke-opacity:1"
         transform="scale(-0.8)"
         inkscape:connector-curvature="0" />
    </marker>
    <marker
       inkscape:stockid="TriangleOutL"
       orient="auto"
       refY="0"
       refX="0"
       id="TriangleOutL"
       style="overflow:visible"
       inkscape:isstock="true">
      <path
         id="path24473"
         d="M 5.77,0 -2.88,5 V -5 Z"
         style="fill:#000000;fill-opacity:1;fill-rule:evenodd;stroke:#000000;stroke-width:1.00000003pt;stroke-opacity:1"
         transform="scale(0.8)"
         inkscape:connector-curvature="0" />
    </marker>
    <marker
       inkscape:stockid="EmptyTriangleOutL"
       orient="auto"
       refY="0"
       refX="0"
       id="EmptyTriangleOutL"
       style="overflow:visible"
       inkscape:isstock="true">
      <path
         id="path34788"
         d="M 5.77,0 -2.88,5 V -5 Z"
         style="fill:#ffffff;fill-rule:evenodd;stroke:#000000;stroke-width:1.00000003pt"
         transform="matrix(0.8,0,0,0.8,-4.8,0)"
         inkscape:connector-curvature="0" />
    </marker>
    <symbol
       id="blank">
      <title
         id="title5748">Blank</title>
      <rect
         x="1"
         y="1"
         width="70"
         height="70"
         rx="6"
         style="fill:none;stroke:#000000;stroke-width:2"
         id="rect5750" />
    </symbol>
    <symbol
       id="symbol19751">
      <title
         id="title19753">Border All</title>
      <path
         d="M 6,6 V 42 H 42 V 6 Z M 22,38 H 10 V 26 H 22 Z M 22,22 H 10 V 10 H 22 Z M 38,38 H 26 V 26 H 38 Z M 38,22 H 26 V 10 h 12 z"
         style="stroke:none"
         id="path19755"
         inkscape:connector-curvature="0" />
    </symbol>
    <symbol
       id="symbol19619">
      <title
         id="title19621">Laptop Chromebook</title>
      <path
         d="M 44,36 V 6 H 4 V 36 H 0 v 4 h 48 v -4 z m -16,0 h -8 v -2 h 8 z M 40,30 H 8 V 10 h 32 z"
         style="stroke:none"
         id="path19623"
         inkscape:connector-curvature="0" />
    </symbol>
    <symbol
       id="stack-overflow"
       class="Brand-Icons">
      <title
         id="title22959">Stack Overflow</title>
      <path
         transform="matrix(0.05,0,0,-0.05,0,76.8)"
         d="M 928,135 V -16 l -707,-1 v 151 z m 241,346 v -701 l -1,-35 v -1 H 36 l -35,1 H 0 v 736 h 121 v -618 h 928 V 481 Z M 241,393 945,328 932,178 227,243 Z M 309,709 992,526 953,380 270,563 Z m 163,349 609,-360 -77,-130 -609,360 z m 360,331 398,-585 -124,-85 -399,584 z m 453,147 121,-697 -149,-26 -121,697 z"
         id="path22961"
         inkscape:connector-curvature="0" />
    </symbol>
    <symbol
       id="database"
       class="Web-Application-Icons">
      <title
         id="title23349">Database</title>
      <path
         transform="matrix(0.05,0,0,-0.05,0,76.8)"
         d="m 768,768 q 237,0 443,43 206,43 325,127 V 768 Q 1536,699 1433,640 1330,581 1153,546.5 976,512 768,512 560,512 383,546.5 206,581 103,640 0,699 0,768 V 938 Q 119,854 325,811 531,768 768,768 Z M 768,0 q 237,0 443,43 206,43 325,127 V 0 q 0,-69 -103,-128 -103,-59 -280,-93.5 Q 976,-256 768,-256 560,-256 383,-221.5 206,-187 103,-128 0,-69 0,0 V 170 Q 119,86 325,43 531,0 768,0 Z m 0,384 q 237,0 443,43 206,43 325,127 V 384 Q 1536,315 1433,256 1330,197 1153,162.5 976,128 768,128 560,128 383,162.5 206,197 103,256 0,315 0,384 V 554 Q 119,470 325,427 531,384 768,384 Z m 0,1152 q 208,0 385,-34.5 177,-34.5 280,-93.5 103,-59 103,-128 v -128 q 0,-69 -103,-128 Q 1330,965 1153,930.5 976,896 768,896 560,896 383,930.5 206,965 103,1024 0,1083 0,1152 v 128 q 0,69 103,128 103,59 280,93.5 177,34.5 385,34.5 z"
         id="path23351"
         inkscape:connector-curvature="0" />
    </symbol>
    <symbol
       id="circle-thin"
       class="Web-Application-Icons Gender-Icons">
      <title
         id="title23479">Circle Outlined Thin</title>
      <path
         transform="matrix(0.05,0,0,-0.05,0,76.8)"
         d="M 768,1280 Q 638,1280 519.5,1229 401,1178 315.5,1092.5 230,1007 179,888.5 128,770 128,640 128,510 179,391.5 230,273 315.5,187.5 401,102 519.5,51 638,0 768,0 q 130,0 248.5,51 118.5,51 204,136.5 85.5,85.5 136.5,204 51,118.5 51,248.5 0,130 -51,248.5 -51,118.5 -136.5,204 Q 1135,1178 1016.5,1229 898,1280 768,1280 Z M 1536,640 Q 1536,431 1433,254.5 1330,78 1153.5,-25 977,-128 768,-128 559,-128 382.5,-25 206,78 103,254.5 0,431 0,640 0,849 103,1025.5 206,1202 382.5,1305 559,1408 768,1408 977,1408 1153.5,1305 1330,1202 1433,1025.5 1536,849 1536,640 Z"
         id="path23481"
         inkscape:connector-curvature="0" />
    </symbol>
    <marker
       inkscape:stockid="ExperimentalArrow"
       orient="auto-start-reverse"
       refY="3"
       refX="5"
       id="ExperimentalArrow-9"
       inkscape:isstock="true">
      <path
         inkscape:connector-curvature="0"
         id="path4994-6"
         d="M 10,3 0,6 V 0 Z"
         style="fill:context-stroke;stroke:#000000;stroke-opacity:1" />
    </marker>
  </defs>
  <sodipodi:namedview
     id="base"
     pagecolor="#ffffff"
     bordercolor="#666666"
     borderopacity="1.0"
     inkscape:pageopacity="0.0"
     inkscape:pageshadow="2"
     inkscape:zoom="0.98994949"
     inkscape:cx="407.3888"
     inkscape:cy="165.27382"
     inkscape:document-units="px"
     inkscape:current-layer="layer1"
     showgrid="false"
     inkscape:window-width="1920"
     inkscape:window-height="1049"
     inkscape:window-x="0"
     inkscape:window-y="31"
     inkscape:window-maximized="1"
     inkscape:snap-global="false"
     inkscape:snap-bbox="true"
     inkscape:bbox-paths="true"
     inkscape:bbox-nodes="true"
     inkscape:snap-bbox-edge-midpoints="true"
     inkscape:snap-bbox-midpoints="true"
     showguides="true"
     fit-margin-top="10"
     fit-margin-left="10"
     fit-margin-right="10"
     fit-margin-bottom="10" />
  <metadata
     id="metadata7">
    <rdf:RDF>
      <cc:Work
         rdf:about="">
        <dc:format>image/svg+xml</dc:format>
        <dc:type
           rdf:resource="http://purl.org/dc/dcmitype/StillImage" />
        <dc:title></dc:title>
      </cc:Work>
    </rdf:RDF>
  </metadata>
  <g
     inkscape:label="Ebene 1"
     inkscape:groupmode="layer"
     id="layer1"
     transform="translate(-3.4956008,-716.384)">
    <rect
       style="fill:#c12800;fill-opacity:1;fill-rule:nonzero;stroke:#c12800;stroke-width:2.05190158;stroke-linecap:round;stroke-linejoin:round;stroke-miterlimit:4;stroke-dasharray:4.10380333, 4.10380333;stroke-dashoffset:37.24000168;stroke-opacity:1"
       id="rect45527"
       width="50.700024"
       height="33.99498"
       x="-476.4209"
       y="923.26575"
       transform="scale(-1,1)" />
    <rect
       style="fill:#c12800;fill-opacity:1;fill-rule:nonzero;stroke:#c12800;stroke-width:2.05190158;stroke-linecap:round;stroke-linejoin:round;stroke-miterlimit:4;stroke-dasharray:4.10380333, 4.10380333;stroke-dashoffset:37.24000168;stroke-opacity:1"
       id="rect45535"
       width="50.700024"
       height="33.99498"
       x="-476.4209"
       y="881.51538"
       transform="scale(-1,1)" />
    <rect
       style="fill:#c12800;fill-opacity:1;fill-rule:nonzero;stroke:#c12800;stroke-width:2.05190158;stroke-linecap:round;stroke-linejoin:round;stroke-miterlimit:4;stroke-dasharray:4.10380333, 4.10380333;stroke-dashoffset:37.24000168;stroke-opacity:1"
       id="rect45543"
       width="50.700024"
       height="33.99498"
       x="-592.70667"
       y="923.51538"
       transform="scale(-1,1)" />
    <rect
       y="839.37231"
       x="-476.4209"
       height="33.99498"
       width="50.700024"
       id="rect45633"
       style="fill:#c12800;fill-opacity:1;fill-rule:nonzero;stroke:#c12800;stroke-width:2.05190158;stroke-linecap:round;stroke-linejoin:round;stroke-miterlimit:4;stroke-dasharray:4.10380333, 4.10380333;stroke-dashoffset:37.24000168;stroke-opacity:1"
       transform="scale(-1,1)" />
    <rect
       y="839.40808"
       x="-592.70667"
       height="33.99498"
       width="50.700024"
       id="rect45641"
       style="fill:#c12800;fill-opacity:1;fill-rule:nonzero;stroke:#c12800;stroke-width:2.05190158;stroke-linecap:round;stroke-linejoin:round;stroke-miterlimit:4;stroke-dasharray:4.10380333, 4.10380333;stroke-dashoffset:37.24000168;stroke-opacity:1"
       transform="scale(-1,1)" />
    <rect
       style="fill:#c12800;fill-opacity:1;fill-rule:nonzero;stroke:#c12800;stroke-width:2.05190158;stroke-linecap:round;stroke-linejoin:round;stroke-miterlimit:4;stroke-dasharray:4.10380333, 4.10380333;stroke-dashoffset:37.24000168;stroke-opacity:1"
       id="rect45671"
       width="50.700024"
       height="33.99498"
       x="-592.70667"
       y="881.5509"
       transform="scale(-1,1)" />
    <use
       id="use25106"
       style="fill:#000000;stroke:#000000"
       xlink:href="#symbol19619"
       x="0"
       y="0"
       width="100%"
       height="100%"
       transform="matrix(-2.1677171,0,0,2.1677171,142.97908,844.91194)" />
    <use
       id="use26960"
       xlink:href="#database"
       x="0"
       y="0"
       width="100%"
       height="100%"
       transform="matrix(-0.27323162,0,0,0.27323162,578.64197,928.09703)"
       style="fill:#ececec" />
    <use
       style="fill:#ececec"
       transform="matrix(-0.27323162,0,0,0.27323162,578.64197,886.13276)"
       height="100%"
       width="100%"
       y="0"
       x="0"
       xlink:href="#database"
       id="use27034" />
    <use
       style="fill:#ececec"
       transform="matrix(-0.27323162,0,0,0.27323162,578.64197,843.98988)"
       height="100%"
       width="100%"
       y="0"
       x="0"
       xlink:href="#database"
       id="use27036" />
    <g
       id="g27056"
       transform="matrix(-1,0,0,1,1135.4076,240.00001)">
      <use
         id="use27058"
         xlink:href="#circle-thin"
         x="0"
         y="0"
         width="100%"
         height="100%"
         transform="matrix(0.31175595,0,0,0.31175595,671.87555,644.40569)"
         style="fill:#e6e6e6" />
    </g>
    <use
       id="use27060"
       xlink:href="#circle-thin"
       x="0"
       y="0"
       width="100%"
       height="100%"
       transform="matrix(-0.31175595,0,0,0.31175595,463.53213,842.26285)"
       style="fill:#e6e6e6" />
    <g
       transform="matrix(-1,0,0,1,1135.4076,281.72971)"
       id="g27066">
      <use
         style="fill:#e6e6e6"
         transform="matrix(0.31175595,0,0,0.31175595,671.87555,644.40569)"
         height="100%"
         width="100%"
         y="0"
         x="0"
         xlink:href="#circle-thin"
         id="use27068" />
    </g>
    <text
       xml:space="preserve"
       style="font-style:normal;font-weight:normal;line-height:0%;font-family:sans-serif;letter-spacing:-31.95937729px;word-spacing:0px;fill:#ffbeaf;fill-opacity:1;stroke:none;stroke-width:1px;stroke-linecap:butt;stroke-linejoin:miter;stroke-opacity:1"
       x="581.25311"
       y="852.57703"
       id="text27080"><tspan
         sodipodi:role="line"
         x="581.25311"
         y="852.57703"
         style="font-style:normal;font-variant:normal;font-weight:500;font-stretch:normal;font-size:12.49999523px;line-height:100%;font-family:'Source Code Pro';-inkscape-font-specification:'Source Code Pro Medium';text-align:start;letter-spacing:0px;word-spacing:0px;writing-mode:lr-tb;text-anchor:start;fill:#ffbeaf;fill-opacity:1"
         id="tspan35066">0</tspan><tspan
         sodipodi:role="line"
         x="581.25311"
         y="865.07703"
         style="font-style:normal;font-variant:normal;font-weight:500;font-stretch:normal;font-size:12.49999523px;line-height:100%;font-family:'Source Code Pro';-inkscape-font-specification:'Source Code Pro Medium';text-align:start;letter-spacing:0px;word-spacing:0px;writing-mode:lr-tb;text-anchor:start;fill:#ffbeaf;fill-opacity:1"
         id="tspan35070">m</tspan></text>
    <text
       id="text27086"
       y="893.88342"
       x="91.2285"
       style="font-style:normal;font-weight:normal;line-height:0%;font-family:sans-serif;letter-spacing:0px;word-spacing:0px;fill:#000000;fill-opacity:1;stroke:none;stroke-width:1px;stroke-linecap:butt;stroke-linejoin:miter;stroke-opacity:1"
       xml:space="preserve"><tspan
         style="font-style:normal;font-variant:normal;font-weight:500;font-stretch:normal;font-size:18.19537354px;line-height:444.00000572%;font-family:'Source Code Pro';-inkscape-font-specification:'Source Code Pro Medium';text-align:center;writing-mode:lr-tb;text-anchor:middle;fill:#000000"
         y="893.88342"
         x="96.683556"
         id="tspan27088"
         sodipodi:role="line">client </tspan></text>
    <rect
       style="fill:none;fill-opacity:1;fill-rule:nonzero;stroke:#00527a;stroke-width:2.64335632;stroke-linecap:round;stroke-linejoin:round;stroke-miterlimit:4;stroke-dasharray:10.57342709, 10.57342709;stroke-dashoffset:0;stroke-opacity:1"
       id="rect27090"
       width="337.22269"
       height="242.91237"
       x="-633.01447"
       y="753.13873"
       transform="scale(-1,1)" />
    <g
       transform="matrix(-0.17798373,0,0,1.0209607,328.4167,482.97627)"
       id="g24919"
       style="fill:#f6b200;stroke:#f6b200">
      <g
         id="g24921"
         style="fill:#f6b200;stroke:#f6b200">
        <rect
           style="fill:#f6b200;fill-opacity:1;fill-rule:nonzero;stroke:#f6b200;stroke-width:4.20275402;stroke-linejoin:round;stroke-miterlimit:4;stroke-dasharray:none;stroke-opacity:1"
           id="rect24923"
           width="190.64011"
           height="58.906952"
           x="88.251373"
           y="375.61356" />
      </g>
    </g>
    <path
       sodipodi:nodetypes="cc"
       inkscape:connector-curvature="0"
       id="path24958"
       d="m 138.70996,884.83468 c 77.27668,0 44.93486,-0.0865 122.16887,-0.0808"
       style="fill:none;fill-rule:evenodd;stroke:#000000;stroke-width:1.99842453;stroke-linecap:butt;stroke-linejoin:miter;stroke-miterlimit:4;stroke-dasharray:3.99684899, 3.99684899;stroke-dashoffset:0;stroke-opacity:1;marker-end:url(#ExperimentalArrow)" />
    <path
       style="fill:none;fill-rule:evenodd;stroke:#000000;stroke-width:1.99999928;stroke-linecap:butt;stroke-linejoin:miter;stroke-miterlimit:4;stroke-dasharray:3.9999986, 3.9999986;stroke-dashoffset:0;stroke-opacity:1;marker-end:url(#marker7139)"
       d="m 315.26312,887.29739 c 53.03301,-1.51523 23.78773,-36.29726 92.47811,-36.61501"
       id="path24964"
       inkscape:connector-curvature="0"
       sodipodi:nodetypes="cc" />
    <path
       sodipodi:nodetypes="cc"
       inkscape:connector-curvature="0"
       id="path45745"
       d="m 596.53703,858.13211 c 0,0 21.51062,19.58737 0.30639,42.43371"
       style="fill:none;fill-rule:evenodd;stroke:#c12800;stroke-width:3.00000072;stroke-linecap:butt;stroke-linejoin:miter;stroke-miterlimit:4;stroke-dasharray:3.00000072, 6.00000143;stroke-dashoffset:0;stroke-opacity:1" />
    <path
       style="fill:none;fill-rule:evenodd;stroke:#c12800;stroke-width:3.00000072;stroke-linecap:butt;stroke-linejoin:miter;stroke-miterlimit:4;stroke-dasharray:3.00000072, 6.00000143;stroke-dashoffset:0;stroke-opacity:1"
       d="m 596.53703,858.13211 c 0,0 58.29634,39.6889 0.30639,83.50515"
       id="path45747"
       inkscape:connector-curvature="0"
       sodipodi:nodetypes="cc" />
    <text
       id="text24722"
       y="894.00549"
       x="581.25311"
       style="font-style:normal;font-weight:normal;line-height:0%;font-family:sans-serif;letter-spacing:0px;word-spacing:0px;fill:#ffbeaf;fill-opacity:1;stroke:none;stroke-width:1px;stroke-linecap:butt;stroke-linejoin:miter;stroke-opacity:1"
       xml:space="preserve"><tspan
         style="font-style:normal;font-variant:normal;font-weight:500;font-stretch:normal;font-size:12.49999523px;line-height:100%;font-family:'Source Code Pro';-inkscape-font-specification:'Source Code Pro Medium';text-align:start;writing-mode:lr-tb;text-anchor:start;fill:#ffbeaf;fill-opacity:1"
         y="894.00549"
         x="581.25311"
         sodipodi:role="line"
         id="tspan35072">1</tspan><tspan
         style="font-style:normal;font-variant:normal;font-weight:500;font-stretch:normal;font-size:12.49999523px;line-height:100%;font-family:'Source Code Pro';-inkscape-font-specification:'Source Code Pro Medium';text-align:start;writing-mode:lr-tb;text-anchor:start;fill:#ffbeaf;fill-opacity:1"
         y="906.50549"
         x="581.25311"
         sodipodi:role="line"
         id="tspan35082">s</tspan></text>
    <text
       xml:space="preserve"
       style="font-style:normal;font-weight:normal;line-height:0%;font-family:sans-serif;letter-spacing:0px;word-spacing:0px;fill:#ffbeaf;fill-opacity:1;stroke:none;stroke-width:1px;stroke-linecap:butt;stroke-linejoin:miter;stroke-opacity:1"
       x="581.25311"
       y="936.14819"
       id="text24726"><tspan
         sodipodi:role="line"
         x="581.25311"
         y="936.14819"
         style="font-style:normal;font-variant:normal;font-weight:500;font-stretch:normal;font-size:12.49999523px;line-height:100%;font-family:'Source Code Pro';-inkscape-font-specification:'Source Code Pro Medium';text-align:start;writing-mode:lr-tb;text-anchor:start;fill:#ffbeaf;fill-opacity:1"
         id="tspan35074">2</tspan><tspan
         sodipodi:role="line"
         x="581.25311"
         y="948.64819"
         style="font-style:normal;font-variant:normal;font-weight:500;font-stretch:normal;font-size:12.49999523px;line-height:100%;font-family:'Source Code Pro';-inkscape-font-specification:'Source Code Pro Medium';text-align:start;writing-mode:lr-tb;text-anchor:start;fill:#ffbeaf;fill-opacity:1"
         id="tspan35086">s</tspan></text>
    <path
       sodipodi:nodetypes="cc"
       inkscape:connector-curvature="0"
       id="path19124"
       d="m 480.93275,850.16095 42.25491,0.0479"
       style="fill:none;fill-rule:evenodd;stroke:#000000;stroke-width:1.99999928;stroke-linecap:butt;stroke-linejoin:miter;stroke-miterlimit:4;stroke-dasharray:3.9999986, 3.9999986;stroke-dashoffset:0;stroke-opacity:1;marker-end:url(#marker63168)" />
    <path
       style="fill:none;fill-rule:evenodd;stroke:#000000;stroke-width:1.99842453;stroke-linecap:butt;stroke-linejoin:miter;stroke-miterlimit:4;stroke-dasharray:3.99684899, 3.99684899;stroke-dashoffset:0;stroke-opacity:1;marker-end:url(#marker35098)"
       d="m 273.9797,901.62861 c -77.27668,0 -44.93486,0.0865 -122.16887,0.0808"
       id="path35094"
       inkscape:connector-curvature="0"
       sodipodi:nodetypes="cc" />
    <path
       sodipodi:nodetypes="cc"
       inkscape:connector-curvature="0"
       id="path41082"
       d="M 420.86623,865.68238 C 353.10108,865.5235 380.33743,901.31 328.38812,902.29739"
       style="fill:none;fill-rule:evenodd;stroke:#000000;stroke-width:1.99999928;stroke-linecap:butt;stroke-linejoin:miter;stroke-miterlimit:4;stroke-dasharray:3.9999986, 3.9999986;stroke-dashoffset:0;stroke-opacity:1;marker-end:url(#marker41252)" />
    <path
       style="fill:none;fill-rule:evenodd;stroke:#000000;stroke-width:1.99999928;stroke-linecap:butt;stroke-linejoin:miter;stroke-miterlimit:4;stroke-dasharray:3.9999986, 3.9999986;stroke-dashoffset:0;stroke-opacity:1;marker-end:url(#marker67822)"
       d="m 536.31265,865.20886 -42.25491,-0.0479"
       id="path67652"
       inkscape:connector-curvature="0"
       sodipodi:nodetypes="cc" />
    <rect
       transform="scale(-1,1)"
       style="fill:#00527a;fill-opacity:1;fill-rule:nonzero;stroke:#00527a;stroke-width:2.05190158;stroke-linecap:round;stroke-linejoin:round;stroke-miterlimit:4;stroke-dasharray:4.10380333, 4.10380333;stroke-dashoffset:37.24000168;stroke-opacity:1"
       id="rect78140"
       width="50.700024"
       height="33.99498"
       x="-476.4209"
       y="788.74768" />
    <use
       style="fill:#e6e6e6"
       transform="matrix(-0.31175595,0,0,0.31175595,463.53213,791.63789)"
       height="100%"
       width="100%"
       y="0"
       x="0"
       xlink:href="#circle-thin"
       id="use78142" />
    <rect
       transform="scale(-1,1)"
       style="fill:#00527a;fill-opacity:1;fill-rule:nonzero;stroke:#00527a;stroke-width:2.05190158;stroke-linecap:round;stroke-linejoin:round;stroke-miterlimit:4;stroke-dasharray:4.10380333, 4.10380333;stroke-dashoffset:37.24000168;stroke-opacity:1"
       id="rect78144"
       width="50.700024"
       height="33.99498"
       x="-592.70667"
       y="788.685" />
    <use
       id="use78146"
       xlink:href="#database"
       x="0"
       y="0"
       width="100%"
       height="100%"
       transform="matrix(-0.27323162,0,0,0.27323162,578.64197,793.26681)"
       style="fill:#ececec" />
  </g>
</svg>
